<svg xmlns="http://www.w3.org/2000/svg" viewBox="0 0 2000 2000"><defs><style>.a{fill:#fff;}</style></defs><path class="a" d="M97.67,1144.66,97.92,602,332.05,560.8q48-8.44,82.37,21.13t34.36,78.74l0,60.49q0,49.46-34.45,91t-82.4,50L214.58,882.74l-.12,241.39ZM214.6,822.82l58.67-10.31q23.87-4.2,41.27-25.21T332,741.7l0-60.49q0-24.59-17.38-39.2T273.35,631.6l-58.67,10.32Z"/><path class="a" d="M495.18,1074.76l.2-422.28q0-49.46,34.45-91t82.4-50L729.56,490.9q48-8.44,82.37,21.12t34.36,78.75l-.19,422.28-116.79,20.54.11-241.38L612.09,812.84,612,1054.22ZM612.11,752.92l117.34-20.63,0-121q0-24.59-17.38-39.2T670.86,561.7q-24.14,4.24-41.41,24.94t-17.28,45.3Z"/><path class="a" d="M892.7,1004.86l.26-542.7L1127.08,421q48-8.43,82.37,21.13t34.36,78.75v32.78q0,40.44-26.9,82.6t-90,53.26l58.13-10.22q24.12-4.24,41.39,10.52t17.25,39.65l-.1,213.69-116.79,20.53.08-180.89q0-24.88-17.38-39.62t-41.26-10.55l-58.66,10.31-.12,241.39ZM1009.63,683l58.67-10.32q23.87-4.2,41.28-25.21t17.42-45.6l0-60.49q0-24.58-17.38-39.2t-41.26-10.41l-58.66,10.32Z"/><path class="a" d="M1348.34,924.73l.25-542.69,117.06-20.59-.26,542.7Z"/><path class="a" d="M495.18,1646.62l.26-542.69,234.12-41.17q48-8.44,82.37,21.13t34.36,78.74l0,60.49q0,49.45-34.44,91t-82.41,50L612.09,1384.7,612,1626.08Zm116.93-321.84,58.67-10.31q23.87-4.2,41.27-25.21t17.43-45.61l0-60.48q0-24.59-17.38-39.2t-41.26-10.41l-58.66,10.32Z"/><path class="a" d="M892.69,1576.72,893,1034l116.79-20.54-.23,482.21L1185,1464.84l0,60.49Z"/><path class="a" d="M1466.47,933.17l116.79-20.54-.2,422.28q0,48.91-34.44,90.71t-82.41,50.24l-117.33,20.64q-48,8.43-82.36-21t-34.37-78.9l.19-422.28,116.79-20.54-.19,422.29q0,24.32,17.11,39.1t41.53,10.51q24.4-4.31,41.54-25.12t17.15-45.13Z"/><path class="a" d="M1922.06,973.46l-58.12,10.22q-7.65-59.14-55.36-50.75-30.7,5.4-46.33,23.41t-15.65,48.25q0,22.62,17.24,39.37l123.86,121.79q34.26,33.55,34.23,79v30.53q0,48.9-34.31,90.68t-82.54,50.27l-58.67,10.31q-58.12,10.23-87.44-14.86t-29.29-85l58.66-10.32q-.54,6.33-.55,10,0,24.6,18.35,34.09t40.3,5.63q31.26-5.5,45-23.45t13.72-47.64q0-22.89-17.24-39.36L1664,1134.43q-34.24-33.27-34.23-79.06l0-30.52q0-49.18,34.31-90.82t82.53-50.13l58.67-10.32Q1915,854.31,1922.06,973.46Z"/></svg>