<svg xmlns="http://www.w3.org/2000/svg" viewBox="0 0 2000 1249.81"><defs><style>.a{fill:#fff;}</style></defs><path class="a" d="M348.67,479.86c0,70.46-51.31,123.29-133.25,137.7l-61.78,10.86,0,87.18-71,12.48.15-316.18,132.76-23.34C297.46,374.15,348.71,408.94,348.67,479.86Zm-71.86,12.63c0-34.77-21.88-51.25-65.26-43.62L153.72,459l-.06,109.76,57.84-10.17C254.88,551,276.8,526.82,276.81,492.49Z"/><path class="a" d="M570.3,574.57l-142.41,25-27.2,72.53L328,684.94,464.81,344.72l70.11-12.33,137,292.06-74.49,13.1ZM548,523,499.4,410.45l-48.7,129.6Z"/><path class="a" d="M884,587.16l-59.11-77.67-3.5.62L759.57,521,759.52,609l-71,12.49.15-316.18L821.45,282c81.94-14.41,133.19,20.39,133.16,91.3,0,47.43-23.27,86.29-63.15,110.91l68.74,89.54ZM817.49,342.33l-57.85,10.16,0,110.21,57.84-10.17c43.38-7.63,65.29-32.26,65.31-66.59C882.76,351.16,860.87,334.7,817.49,342.33Z"/><path class="a" d="M995.37,251.42l71-12.48-.08,694.73-71,12.48Z"/><path class="a" d="M899.63,961.79l-.35-189.64L808.94,944.3l-32,5.63L687.2,813.51l-.09,185.64-66.6,11.72.15-316.18,58.71-10.33,114.71,176.3L907.22,644.3l58.28-10.25.73,316Z"/><path class="a" d="M1332.51,827l0,58.72L1095,927.43l.15-316.18,231.79-40.76,0,58.72-161.25,28.35,0,68.66,142.41-25,0,56.91-142.41,25,0,73.17Z"/><path class="a" d="M1342.61,744.78l.08-177.06,71-12.48-.08,174.34c0,60.08,25.37,80.46,68.32,72.9,43.38-7.62,68.36-36.86,68.39-96.93l.08-174.35,70.11-12.33-.08,177.06c-.05,93.05-51.78,153.63-139,169S1342.56,837.83,1342.61,744.78Z"/><path class="a" d="M1835.45,797.22l-74-96.74L1688.67,823l-81.5,14.34,113.55-180.76L1613,520.19,1693.63,506l70.5,90.13,69.28-114.71L1910.09,468l-107,171.47,114.29,143.39Z"/></svg>